#tb 0: 1/25
#media_type 0: video
#codec_id 0: rawvideo
#dimensions 0: 720x480
#sar 0: 0/1
0,          0,          0,        1,   518400, 0x80dffda2
0,          2,          2,        1,   518400, 0x9450183b
0,          3,          3,        1,   518400, 0x85d429a7
0,          4,          4,        1,   518400, 0xe1f3b686
0,          5,          5,        1,   518400, 0x2180c761
0,          6,          6,        1,   518400, 0x30269c7c
0,          7,          7,        1,   518400, 0xe9aa575a
0,          8,          8,        1,   518400, 0x7b815a0a
